<svg width="35" height="36" viewBox="0 0 35 36" fill="none" xmlns="http://www.w3.org/2000/svg">
<path d="M17.5001 3.83317L15.5389 7.10121C13.998 9.67055 13.2292 10.9552 13.2292 12.3748C13.2292 13.7928 13.998 15.0791 15.5406 17.6485L16.7706 19.695C17.0952 20.2417 17.2609 20.515 17.5018 20.515C17.7427 20.515 17.9067 20.2417 18.2347 19.695L19.463 17.6485C21.0022 15.0791 21.7709 13.7945 21.7709 12.3748C21.7709 10.9569 21.0022 9.67055 19.4595 7.10121L17.5001 3.83317ZM17.5001 3.83317V0.416504M31.4401 18.5214L27.6305 18.4582C24.6341 18.407 23.1376 18.3813 21.9076 19.0903C20.6776 19.801 19.9498 21.1113 18.496 23.7318L17.3378 25.8177C17.0286 26.3746 16.8748 26.6531 16.9961 26.8615C17.1157 27.0716 17.4335 27.0768 18.069 27.087L20.4572 27.128C23.4519 27.1793 24.9501 27.2032 26.1801 26.4925C27.4101 25.7835 28.1362 24.4733 29.5917 21.8544L31.4401 18.5214ZM31.4401 18.5214L34.3989 16.8131" stroke="#79D853" stroke-width="2"/>
<path d="M3.56003 18.5213L7.36961 18.4581C10.366 18.4069 11.8625 18.3812 13.0925 19.0902C14.3225 19.8009 15.0503 21.1112 16.5041 23.7317L17.6623 25.8176C17.9715 26.3745 18.1253 26.653 18.004 26.8614C17.8844 27.0715 17.5667 27.0767 16.9312 27.0869L14.5429 27.1279C11.5482 27.1792 10.05 27.2031 8.81999 26.4924C7.58999 25.7834 6.86395 24.4732 5.41015 21.8543L3.56003 18.5213ZM3.56003 18.5213L0.601196 16.813M17.5 22.6247V35.4372" stroke="#79D853" stroke-width="2"/>
</svg>
