<svg width="35" height="38" viewBox="0 0 35 38" fill="none" xmlns="http://www.w3.org/2000/svg">
<path d="M5.54163 12.3748C5.54163 9.20329 6.80152 6.16164 9.04414 3.91902C11.2868 1.6764 14.3284 0.416504 17.5 0.416504C20.6715 0.416504 23.7132 1.6764 25.9558 3.91902C28.1984 6.16164 29.4583 9.20329 29.4583 12.3748V14.143C32.3556 14.5581 34.5833 17.0505 34.5833 20.0623V20.4894C34.5833 23.5217 31.9678 26.1799 28.8911 26.0381C27.627 29.6598 24.4119 32.101 20.9423 32.7194C20.1393 33.0132 19.1895 32.8748 18.3541 32.8748C17.6745 32.8748 17.0227 32.6049 16.5422 32.1243C16.0616 31.6437 15.7916 30.992 15.7916 30.3123C15.7916 29.6327 16.0616 28.9809 16.5422 28.5004C17.0227 28.0198 17.6745 27.7498 18.3541 27.7498C19.7088 27.7498 21.2088 27.5534 22.1244 28.7902C24.3384 27.7362 26.0416 25.5102 26.0416 22.6248V12.3748C26.0416 10.1094 25.1417 7.93684 23.5398 6.33497C21.938 4.73309 19.7654 3.83317 17.5 3.83317C15.2346 3.83317 13.062 4.73309 11.4601 6.33497C9.85822 7.93684 8.95829 10.1094 8.95829 12.3748V23.0519C8.95829 23.8448 8.64332 24.6052 8.08266 25.1659C7.52201 25.7265 6.7616 26.0415 5.96871 26.0415C4.49621 26.0415 3.08401 25.4566 2.04279 24.4153C1.00158 23.3741 0.416626 21.9619 0.416626 20.4894V20.0623C0.416257 18.6243 0.934182 17.2343 1.87547 16.1471C2.81675 15.0599 4.11833 14.3484 5.54163 14.143V12.3748Z" fill="#79D853"/>
</svg>
