<svg width="37" height="31" viewBox="0 0 37 31" fill="none" xmlns="http://www.w3.org/2000/svg">
<path d="M6.54163 11.2295C6.54163 11.2295 2.14865 12.9378 1.41663 18.917M30.4583 11.2295C30.4583 11.2295 34.8513 12.9378 35.5833 18.917M13.375 11.2295C13.375 11.2295 17.475 12.2263 18.5 17.2087C19.525 12.2263 23.625 11.2295 23.625 11.2295M15.0833 24.042C15.0833 24.042 11.4958 24.6826 9.95829 29.167M21.9166 24.042C21.9166 24.042 25.5041 24.6826 27.0416 29.167" stroke="#79D853" stroke-width="2" stroke-linecap="round"/>
<path d="M18.5 25.7502C20.8587 25.7502 22.7708 23.838 22.7708 21.4793C22.7708 19.1206 20.8587 17.2085 18.5 17.2085C16.1412 17.2085 14.2291 19.1206 14.2291 21.4793C14.2291 23.838 16.1412 25.7502 18.5 25.7502Z" fill="#79D853" stroke="#79D853" stroke-width="2" stroke-linecap="round" stroke-linejoin="round"/>
<path d="M27.0416 12.0835C29.8721 12.0835 32.1666 9.78896 32.1666 6.9585C32.1666 4.12804 29.8721 1.8335 27.0416 1.8335C24.2112 1.8335 21.9166 4.12804 21.9166 6.9585C21.9166 9.78896 24.2112 12.0835 27.0416 12.0835Z" fill="#79D853" stroke="#79D853" stroke-width="2" stroke-linecap="round" stroke-linejoin="round"/>
<path d="M9.95825 12.0835C12.7887 12.0835 15.0833 9.78896 15.0833 6.9585C15.0833 4.12804 12.7887 1.8335 9.95825 1.8335C7.12779 1.8335 4.83325 4.12804 4.83325 6.9585C4.83325 9.78896 7.12779 12.0835 9.95825 12.0835Z" fill="#79D853" stroke="#79D853" stroke-width="2" stroke-linecap="round" stroke-linejoin="round"/>
</svg>
