<svg width="41" height="41" viewBox="0 0 41 41" fill="none" xmlns="http://www.w3.org/2000/svg">
<path d="M30.5298 8.96863C30.2647 8.21949 29.7739 7.57094 29.125 7.11223C28.4761 6.65353 27.7009 6.40723 26.9062 6.40723C26.1116 6.40723 25.3364 6.65353 24.6875 7.11223C24.0386 7.57094 23.5478 8.21949 23.2827 8.96863H3.84375V11.5311H23.2827C23.5478 12.2803 24.0386 12.9288 24.6875 13.3875C25.3364 13.8462 26.1116 14.0925 26.9062 14.0925C27.7009 14.0925 28.4761 13.8462 29.125 13.3875C29.7739 12.9288 30.2647 12.2803 30.5298 11.5311H37.1562V8.96863H30.5298ZM14.0938 16.6561C13.2992 16.6573 12.5244 16.9041 11.8757 17.3629C11.227 17.8217 10.7361 18.4699 10.4702 19.2186H3.84375V21.7811H10.4702C10.7353 22.5303 11.2261 23.1788 11.875 23.6375C12.5239 24.0962 13.2991 24.3425 14.0938 24.3425C14.8884 24.3425 15.6636 24.0962 16.3125 23.6375C16.9614 23.1788 17.4522 22.5303 17.7173 21.7811H37.1562V19.2186H17.7173C17.4514 18.4699 16.9605 17.8217 16.3118 17.3629C15.6631 16.9041 14.8883 16.6573 14.0938 16.6561ZM26.9062 26.9061C26.1117 26.9073 25.3369 27.1541 24.6882 27.6129C24.0395 28.0717 23.5486 28.7199 23.2827 29.4686H3.84375V32.0311H23.2827C23.5478 32.7803 24.0386 33.4288 24.6875 33.8875C25.3364 34.3462 26.1116 34.5925 26.9062 34.5925C27.7009 34.5925 28.4761 34.3462 29.125 33.8875C29.7739 33.4288 30.2647 32.7803 30.5298 32.0311H37.1562V29.4686H30.5298C30.2639 28.7199 29.773 28.0717 29.1243 27.6129C28.4756 27.1541 27.7008 26.9073 26.9062 26.9061Z" fill="#79D853"/>
</svg>
