<svg width="28" height="36" viewBox="0 0 28 36" fill="none" xmlns="http://www.w3.org/2000/svg">
<path d="M14 27.3332C14.884 27.3332 15.7319 26.982 16.357 26.3569C16.9821 25.7317 17.3333 24.8839 17.3333 23.9998C17.3333 23.1158 16.9821 22.2679 16.357 21.6428C15.7319 21.0177 14.884 20.6665 14 20.6665C13.1159 20.6665 12.2681 21.0177 11.6429 21.6428C11.0178 22.2679 10.6666 23.1158 10.6666 23.9998C10.6666 24.8839 11.0178 25.7317 11.6429 26.3569C12.2681 26.982 13.1159 27.3332 14 27.3332ZM24 12.3332C24.884 12.3332 25.7319 12.6844 26.357 13.3095C26.9821 13.9346 27.3333 14.7824 27.3333 15.6665V32.3332C27.3333 33.2172 26.9821 34.0651 26.357 34.6902C25.7319 35.3153 24.884 35.6665 24 35.6665H3.99996C3.1159 35.6665 2.26806 35.3153 1.64294 34.6902C1.01782 34.0651 0.666626 33.2172 0.666626 32.3332V15.6665C0.666626 14.7824 1.01782 13.9346 1.64294 13.3095C2.26806 12.6844 3.1159 12.3332 3.99996 12.3332H5.66663V8.99984C5.66663 6.7897 6.5446 4.67008 8.1074 3.10728C9.67021 1.54448 11.7898 0.666504 14 0.666504C15.0943 0.666504 16.1779 0.882052 17.189 1.30084C18.2 1.71963 19.1187 2.33346 19.8925 3.10728C20.6663 3.8811 21.2802 4.79976 21.699 5.81081C22.1177 6.82185 22.3333 7.90549 22.3333 8.99984V12.3332H24ZM14 3.99984C12.6739 3.99984 11.4021 4.52662 10.4644 5.4643C9.52674 6.40199 8.99996 7.67375 8.99996 8.99984V12.3332H19V8.99984C19 7.67375 18.4732 6.40199 17.5355 5.4643C16.5978 4.52662 15.326 3.99984 14 3.99984Z" fill="#79D853"/>
</svg>
