<svg width="35" height="35" viewBox="0 0 35 35" fill="none" xmlns="http://www.w3.org/2000/svg">
<path fill-rule="evenodd" clip-rule="evenodd" d="M24.5673 5.07677L27.6936 8.20302C32.2873 12.7984 34.5833 15.0944 34.5833 17.9474C34.5833 20.802 32.2873 23.098 27.6936 27.6917C23.0982 32.2871 20.8022 34.5831 17.9476 34.5831C15.0946 34.5831 12.7969 32.2871 8.20323 27.6934L5.07698 24.5671C2.4376 21.9261 1.11706 20.6072 0.626767 18.8938C0.134767 17.1803 0.555017 15.3609 1.39552 11.7239L1.87898 9.62606C2.58452 6.56473 2.93814 5.03406 3.98535 3.98514C5.03256 2.93623 6.56493 2.58431 9.62627 1.87877L11.7241 1.3936C15.3629 0.55481 17.1805 0.13456 18.894 0.624851C20.6074 1.11685 21.928 2.43739 24.5673 5.07677ZM16.0411 21.4768C14.8914 20.3288 14.8999 18.6785 15.5883 17.3716C15.4179 17.1255 15.3391 16.8274 15.3655 16.5291C15.392 16.2309 15.5221 15.9513 15.7332 15.739C15.9443 15.5266 16.2231 15.3949 16.5212 15.3668C16.8193 15.3386 17.1179 15.4157 17.365 15.5847C17.9458 15.2772 18.5831 15.1132 19.2186 15.1201C19.5584 15.1232 19.883 15.2613 20.121 15.5038C20.3591 15.7463 20.491 16.0735 20.4879 16.4133C20.4847 16.7531 20.3466 17.0777 20.1041 17.3157C19.8616 17.5538 19.5345 17.6857 19.1946 17.6826C18.7991 17.6972 18.4252 17.8672 18.1543 18.1558C17.4931 18.8169 17.6657 19.4797 17.8519 19.6659C18.0398 19.8521 18.7009 20.0247 19.3621 19.3636C20.7014 18.0242 23.0145 17.5801 24.4956 19.0612C25.6453 20.2109 25.6368 21.8611 24.9483 23.168C25.1177 23.4143 25.1956 23.7119 25.1687 24.0096C25.1418 24.3072 25.0116 24.5861 24.8008 24.7979C24.59 25.0097 24.3118 25.1412 24.0143 25.1696C23.7167 25.1979 23.4187 25.1214 23.1716 24.9532C22.405 25.3738 21.5158 25.514 20.657 25.3496C20.324 25.2811 20.0318 25.0832 19.8447 24.7994C19.6576 24.5155 19.5909 24.169 19.6593 23.836C19.7277 23.503 19.9256 23.2108 20.2095 23.0237C20.4933 22.8366 20.8399 22.7699 21.1729 22.8383C21.4753 22.9015 21.9639 22.8024 22.3824 22.3839C23.0435 21.7211 22.871 21.0599 22.6848 20.8737C22.4969 20.6875 21.8357 20.515 21.1746 21.1761C19.8353 22.5154 17.5222 22.9596 16.0411 21.4768ZM14.1175 14.5836C14.4347 14.2663 14.6863 13.8896 14.8579 13.475C15.0296 13.0605 15.1179 12.6162 15.1178 12.1675C15.1177 11.7188 15.0293 11.2745 14.8575 10.86C14.6857 10.4455 14.434 10.0688 14.1166 9.75162C13.7993 9.4344 13.4226 9.18279 13.008 9.01116C12.5934 8.83952 12.1491 8.75123 11.7004 8.75131C11.2517 8.75139 10.8075 8.83984 10.3929 9.01162C9.97844 9.1834 9.60182 9.43515 9.2846 9.75248C8.64395 10.3934 8.28412 11.2625 8.28428 12.1687C8.28444 13.0748 8.64458 13.9438 9.28546 14.5845C9.92633 15.2251 10.7955 15.585 11.7016 15.5848C12.6078 15.5847 13.4768 15.2245 14.1175 14.5836Z" fill="#79D853"/>
</svg>
