<svg width="43" height="41" viewBox="0 0 43 41" fill="none" xmlns="http://www.w3.org/2000/svg">
<path d="M32.2058 28.1554L21.6032 38.7554L11.0007 28.1554C9.06687 26.2443 7.76656 23.9776 7.09973 21.3554C6.4329 18.822 6.4329 16.2887 7.09973 13.7554C7.76656 11.1331 9.06131 8.86093 10.984 6.9387C12.9067 5.01648 15.1794 3.71092 17.8023 3.02204C20.3362 2.37759 22.8702 2.37759 25.4041 3.02204C28.027 3.71092 30.2997 5.01648 32.2224 6.9387C34.1451 8.86093 35.4399 11.1331 36.1067 13.7554C36.7735 16.2887 36.7735 18.822 36.1067 21.3554C35.4399 23.9776 34.1396 26.2443 32.2058 28.1554ZM21.6032 20.8887C22.2034 20.8887 22.759 20.7387 23.2703 20.4387C23.7815 20.1387 24.1872 19.7331 24.4872 19.222C24.7873 18.7109 24.9373 18.1554 24.9373 17.5554C24.9373 16.9554 24.7873 16.3998 24.4872 15.8887C24.1872 15.3776 23.7815 14.972 23.2703 14.672C22.759 14.372 22.2034 14.222 21.6032 14.222C21.0031 14.222 20.4474 14.372 19.9361 14.672C19.4249 14.972 19.0193 15.3776 18.7192 15.8887C18.4191 16.3998 18.2691 16.9554 18.2691 17.5554C18.2691 18.1554 18.4191 18.7109 18.7192 19.222C19.0193 19.7331 19.4249 20.1387 19.9361 20.4387C20.4474 20.7387 21.0031 20.8887 21.6032 20.8887Z" fill="#8A79F0"/>
</svg>
