<svg width="43" height="41" viewBox="0 0 43 41" fill="none" xmlns="http://www.w3.org/2000/svg">
<path d="M29.5913 7.32178H36.258C36.7246 7.32178 37.1191 7.48289 37.4413 7.80511C37.7635 8.12733 37.9246 8.52178 37.9246 8.98844V35.6551C37.9246 36.1218 37.7635 36.5162 37.4413 36.8384C37.1191 37.1607 36.7246 37.3218 36.258 37.3218H6.25798C5.79131 37.3218 5.39686 37.1607 5.07464 36.8384C4.75242 36.5162 4.59131 36.1218 4.59131 35.6551V8.98844C4.59131 8.52178 4.75242 8.12733 5.07464 7.80511C5.39686 7.48289 5.79131 7.32178 6.25798 7.32178H12.9246V3.98844H16.258V7.32178H26.258V3.98844H29.5913V7.32178ZM7.92464 17.3218V33.9884H34.5913V17.3218H7.92464ZM11.258 23.9884H19.5913V30.6551H11.258V23.9884Z" fill="#FBA55B"/>
</svg>
