<svg width="40" height="40" viewBox="0 0 40 40" fill="none" xmlns="http://www.w3.org/2000/svg">
<path d="M8.33333 18.3335L10.8333 10.8335H29.1667L31.6667 18.3335M29.1667 26.6668C28.5036 26.6668 27.8677 26.4034 27.3989 25.9346C26.9301 25.4658 26.6667 24.8299 26.6667 24.1668C26.6667 23.5038 26.9301 22.8679 27.3989 22.3991C27.8677 21.9302 28.5036 21.6668 29.1667 21.6668C29.8297 21.6668 30.4656 21.9302 30.9344 22.3991C31.4033 22.8679 31.6667 23.5038 31.6667 24.1668C31.6667 24.8299 31.4033 25.4658 30.9344 25.9346C30.4656 26.4034 29.8297 26.6668 29.1667 26.6668ZM10.8333 26.6668C10.1703 26.6668 9.53441 26.4034 9.06557 25.9346C8.59673 25.4658 8.33333 24.8299 8.33333 24.1668C8.33333 23.5038 8.59673 22.8679 9.06557 22.3991C9.53441 21.9302 10.1703 21.6668 10.8333 21.6668C11.4964 21.6668 12.1323 21.9302 12.6011 22.3991C13.0699 22.8679 13.3333 23.5038 13.3333 24.1668C13.3333 24.8299 13.0699 25.4658 12.6011 25.9346C12.1323 26.4034 11.4964 26.6668 10.8333 26.6668ZM31.5333 10.0002C31.2 9.0335 30.2667 8.3335 29.1667 8.3335H10.8333C9.73333 8.3335 8.8 9.0335 8.46667 10.0002L5 20.0002V33.3335C5 33.7755 5.17559 34.1994 5.48816 34.512C5.80072 34.8246 6.22464 35.0002 6.66667 35.0002H8.33333C8.77536 35.0002 9.19928 34.8246 9.51184 34.512C9.8244 34.1994 10 33.7755 10 33.3335V31.6668H30V33.3335C30 33.7755 30.1756 34.1994 30.4882 34.512C30.8007 34.8246 31.2246 35.0002 31.6667 35.0002H33.3333C33.7754 35.0002 34.1993 34.8246 34.5118 34.512C34.8244 34.1994 35 33.7755 35 33.3335V20.0002L31.5333 10.0002Z" fill="#79D853"/>
</svg>
